<svg id="Layer_1" data-name="Layer 1" xmlns="http://www.w3.org/2000/svg" viewBox="0 0 128 128"><defs><style>.cls-1{fill:#e39f3a;}</style></defs><title>Artboard 1</title><path d="M22.29,98.47c0,.44.11.67.44.67s.43-.23.38-.74l.38-3.3.38,7.34-1.14.22c-.44.44-.76.73-1,1a3.63,3.63,0,0,1-1-.52A1.22,1.22,0,0,0,20,103a4.52,4.52,0,0,0-2.38.74,3.08,3.08,0,0,0-.82-.74,3.35,3.35,0,0,0-1-.29.92.92,0,0,0-.48.07l.1-3.08a23.27,23.27,0,0,1,.17-2.35c.11-.88.21-1.61.32-2.2l.22,3.37c0,.44.16.67.54.74s.49-.22.54-.81v-18a8.85,8.85,0,0,0-.32-2.72A5,5,0,0,0,15.9,76c.48-.22.7-.73.76-1.54a1.62,1.62,0,0,0-.76-1.61A6.76,6.76,0,0,0,16.76,71a8.38,8.38,0,0,0,.33-2.42V50.91c0-.59-.16-.88-.54-.88s-.49.22-.49.73L16,53.85l-.49-3V48.78a15,15,0,0,0-.21-2,1,1,0,0,0,.59-.15,2.29,2.29,0,0,0,.71-.44c.27-.14.49-.51.7-1.24a10.13,10.13,0,0,1,1,.66A4.71,4.71,0,0,0,19.8,46a5.66,5.66,0,0,0,2.11-.51A11.43,11.43,0,0,1,24,45a10.36,10.36,0,0,1,2.55.22A3.45,3.45,0,0,1,28,46a7.33,7.33,0,0,1,1.68,2.13,7.87,7.87,0,0,1,1.19,3.23V69.48a29.53,29.53,0,0,1-.76,3,6.16,6.16,0,0,1-1,2.13,4.18,4.18,0,0,1-1.41,1.32,18.11,18.11,0,0,1-2.87.81c-1.41.22-2.17.73-2.38,1.69a23,23,0,0,0-.17,2.86Zm3.53-47.41a3.7,3.7,0,0,0-.49-1.77,1.61,1.61,0,0,0-1.19-.8,1.59,1.59,0,0,0-1.36.88,3.42,3.42,0,0,0-.49,1.91v18.2a3.38,3.38,0,0,0,.38,2.13,1.62,1.62,0,0,0,1.47.81c.48,0,.86-.29,1.19-1a3.69,3.69,0,0,0,.38-1.84V51.87C25.76,51.57,25.76,51.35,25.82,51.06Z"/><path d="M30.9,98.84l.2-3.08a.78.78,0,0,0,.15.44,15.66,15.66,0,0,0,.4,2.57c.15.66.35,1,.6,1,.49,0,.79-3.09,1-9.33s.15-10.42.2-12.62A2.77,2.77,0,0,0,33,76.38c-.25-.44-.45-.73-.64-1a1.1,1.1,0,0,0,.84-.36,1.69,1.69,0,0,0,.4-1.18,2.29,2.29,0,0,0-1.05-1.61l.05-.07c-.05,0-.09-.08-.19-.23.29-.14.64-.29,1-.51a4.72,4.72,0,0,0,.6-1.91l1.59-21.36V46.58l.85-.66a2.69,2.69,0,0,0,.4-.37c.1-.14.24-.29.44-.58a3.17,3.17,0,0,1,.85.44,6.92,6.92,0,0,0,1.15.29A3.49,3.49,0,0,0,41.41,45l.74.73.85.59,0,1.32,1.44,21a4.58,4.58,0,0,0,.5,2,7.59,7.59,0,0,0,1,1.84c-.5.14-.75.58-.8,1.46a3.11,3.11,0,0,0,.25,1.33,1.06,1.06,0,0,0,.74.58c-.19.52-.39,1-.59,1.62s-.15,1.1-.2,1.47c.3,7.48.5,12.84.64,16.22s.25,4.84.55,4.91c.1,0,.25-.58.5-1.9l.4-2.2,1,6.16-.94.59a3.33,3.33,0,0,0-.45.51,4.62,4.62,0,0,1-.4.52l-.6-.74a2.13,2.13,0,0,0-1.54-.44,2.1,2.1,0,0,0-.7.08,1.1,1.1,0,0,0-.49.07l-.75.22c-.1,0-.2.07-.35.29l-.35.52c-.1-.15-.25-.3-.44-.59a1.87,1.87,0,0,0-.5-.51l-1-.37-.5-6a11.9,11.9,0,0,0,.4,1.62,4,4,0,0,0,.45,1.09.5.5,0,0,0,.25-.07c0-.29,0-1,.1-2.28v-5.2a2.51,2.51,0,0,0-.7-1.91,2.34,2.34,0,0,0-1.59-.74,5,5,0,0,0-1.64.22c-.35.15-.5.52-.55,1.25L35.88,99c0,.58.1.88.35.88s.15-.07.25-.22.15-.66.35-1.69a20.51,20.51,0,0,1,.49-2.2l.1,6.6-.89.45c-.1,0-.2.07-.4.36a4.62,4.62,0,0,1-.4.52c-.5-.3-1-.59-1.59-.88a1.5,1.5,0,0,0-1,.29,4.81,4.81,0,0,0-.74.59c0-.08-.05-.15-.2-.37a2.56,2.56,0,0,0-.5-.51l-1-.52Zm8.51-15.56q.45-.33.45-2a11.41,11.41,0,0,0-.3-2.27,26.39,26.39,0,0,0-.84-3.45,1.36,1.36,0,0,0,.45-.45c.15-.14.2-.36.24-.8a2.62,2.62,0,0,0-.69-2.13c.1-2.06.2-4.19.4-6.39a15.76,15.76,0,0,0-.1-2.49c-.05-.52-.2-1.62-.55-3.38a18.84,18.84,0,0,1-.3,2.71c-.1,1.18-.15,2.21-.2,3.09a47.47,47.47,0,0,0,.4,6.46A3.16,3.16,0,0,0,37.72,74a3.06,3.06,0,0,0,.5,1.54c-.4,1.32-.7,2.42-.95,3.45A23.23,23.23,0,0,0,37,81.37c0,1,.14,1.62.49,1.91a3.46,3.46,0,0,0,1,.29A1.41,1.41,0,0,0,39.41,83.28Z"/><path d="M59.68,52.45l-.59-6.38,1.08-.44a7,7,0,0,1,.9-.66,2.81,2.81,0,0,0,1.74.73,1.34,1.34,0,0,0,.72-.22c.24-.15.54-.29,1-.51a4.62,4.62,0,0,0,.9.8,5.25,5.25,0,0,1,.6.37,1.46,1.46,0,0,1,.48.07l-.6,6.24-.48-2.27c-.06-.44-.18-.66-.48-.66s-.48.22-.36.8V69.41a5.38,5.38,0,0,0,.18,1.17c.12.44.24.81.36,1.18a3.82,3.82,0,0,0,.6.95c-.42.29-.6.88-.66,1.76a1.56,1.56,0,0,0,.9,1.54,3.51,3.51,0,0,1-.48.52c-.12.07-.24.59-.36,1.61a10.15,10.15,0,0,1-.3,2.2,4.36,4.36,0,0,0-.18.88v21.37a3.39,3.39,0,0,0-1.2.22,2,2,0,0,0-.72.51c-.12.14-.24.22-.36.37a3.5,3.5,0,0,1-.9-.67L60,102.59c-.43-3.23-.9-7-1.45-11.23s-.84-7.27-1.14-9.11a13.32,13.32,0,0,0-.78-3.81L55.72,76a2.23,2.23,0,0,0,.54-1.68,1.33,1.33,0,0,0-.3-.89,8.61,8.61,0,0,0-.6-.88c.12-.36.24-.66.36-1a4.39,4.39,0,0,0,.06-.88c-.06-.81-.12-1.69-.24-2.79a17.38,17.38,0,0,0-.3-2.72c-.12-.81-.24-1.76-.42-2.93a1.47,1.47,0,0,0-.24-.44V70a9.87,9.87,0,0,0,.06,1.33,2.51,2.51,0,0,0,.24.81,1.55,1.55,0,0,0,.24.43,3.37,3.37,0,0,0-.54,1.77,3,3,0,0,0,.6,1.76c-.24.58-.36,1-.48,1.32s0,.66-.06,1.32v19.6c0,.73.12,1.1.42,1.17s.48-.29.36-1l.24-2.94c.12.74.24,1.4.36,2.13a17.33,17.33,0,0,1,.24,2l.18,2.94-1.14.22a1,1,0,0,0-.6.37,1.91,1.91,0,0,1-.48.44,2,2,0,0,0-1.44-.67,1.28,1.28,0,0,0-.78.3c-.24.14-.42.22-.66.37a6.25,6.25,0,0,1-.54-.44c-.18-.15-.48-.3-.91-.59a6.22,6.22,0,0,0-1.08-.3,14.54,14.54,0,0,1,.12-2.2c.12-.8.18-1.46.24-2s.06-1,.12-1.32a2.7,2.7,0,0,1,.3-1.18A10.91,10.91,0,0,1,50,97.89a5.24,5.24,0,0,0,.55,1.25c.12,0,.18-.15.24-.44a4.37,4.37,0,0,1,.06-.81V78.51a2.37,2.37,0,0,0-.18-1,8.21,8.21,0,0,0-1-1.62,1.22,1.22,0,0,0,.67-.59,4.12,4.12,0,0,0,.24-.95,2.27,2.27,0,0,0-.85-1.91l.67-.59a1.34,1.34,0,0,0,.36-.88c0-.36,0-.8.06-1.47V50c0-.44-.12-.66-.42-.74s-.37.15-.43.45l-.42,2.71-.36-2.86c-.12-1.17-.24-2.35-.36-3.67l1.32-.22a1.64,1.64,0,0,0,.73-.37A2.09,2.09,0,0,0,51.4,45,2.63,2.63,0,0,0,53,45.7,2.33,2.33,0,0,0,54.58,45l1.08.8c.42.22.84.44,1.32.74l4.09,26.57V50.25q0-.66-.36-.66c-.24,0-.36.15-.42.59Z"/><path d="M74.34,98.18c0,.44.15.66.46.73s.52-.21.47-.8l.26-2.35.41,3.3.52,3.38-.88.44a10.84,10.84,0,0,0-1,.73,3.58,3.58,0,0,1-1.24-.29,4.69,4.69,0,0,0-1.3-.22,2.46,2.46,0,0,0-1.08.15,3.69,3.69,0,0,0-1.24.44c-.36-.3-.72-.59-1.09-1a2.76,2.76,0,0,0-1.24-.44,15.77,15.77,0,0,1,.11-2.2c.1-.81.15-1.47.2-2.06s.06-1,.11-1.32a3,3,0,0,1,.26-1.17,13.2,13.2,0,0,1,.31,2.28,5.67,5.67,0,0,0,.46,1.24c.1,0,.16-.15.21-.44a5.12,5.12,0,0,1,.05-.8V78.44a2.61,2.61,0,0,0-.16-1,8.81,8.81,0,0,0-.82-1.61,1.15,1.15,0,0,0,.57-.59,5,5,0,0,0,.2-1,2.75,2.75,0,0,0-.77-1.91,6.08,6.08,0,0,1,.41-1.32c.1-.44.21-.88.31-1.4s.1-1,.16-1.32,0-.73.1-1.32V50c0-.44-.05-.67-.36-.74s-.31.15-.36.44L68,52.38l-.31-2.86c-.1-1.18-.2-2.35-.31-3.68l.78-.21a2.51,2.51,0,0,0,.93-.66c.83.22,1.65.44,2.58.66a5,5,0,0,0,1.19-.08A4.1,4.1,0,0,0,74.18,45c.31.22.57.36.88.58a2.86,2.86,0,0,0,.72.29h.78l-.41,2.21-.78,4.62L75,49.88a.73.73,0,0,0-.36-.73c-.21,0-.31.22-.31.81V69a6.84,6.84,0,0,0,.1,1.39,4.26,4.26,0,0,0,.31,1.18,4,4,0,0,0,.57.81c-.52.22-.78.81-.78,1.91a1.62,1.62,0,0,0,.78,1.54A7.4,7.4,0,0,0,74.49,78a10.37,10.37,0,0,0-.15,1.76V98.18Z"/><path d="M88.12,52.45l-.6-6.38,1.09-.44a7,7,0,0,1,.9-.66,2.87,2.87,0,0,0,1.76.73,1.34,1.34,0,0,0,.72-.22c.24-.15.55-.29,1-.51a4.39,4.39,0,0,0,.91.8,5.25,5.25,0,0,1,.6.37,1.46,1.46,0,0,1,.48.07l-.6,6.24-.48-2.27c-.06-.44-.19-.66-.49-.66s-.48.22-.36.8V69.41a5.38,5.38,0,0,0,.18,1.17c.12.44.24.81.36,1.18a3.9,3.9,0,0,0,.61.95c-.43.29-.61.88-.67,1.76A1.57,1.57,0,0,0,94.41,76a3.51,3.51,0,0,1-.48.52c-.12.07-.25.59-.37,1.61a10.15,10.15,0,0,1-.3,2.2,4.36,4.36,0,0,0-.18.88v21.37a3.44,3.44,0,0,0-1.21.22,2,2,0,0,0-.72.51c-.13.14-.25.22-.37.37a3.5,3.5,0,0,1-.9-.67l-1.45-.43Q87.79,97.75,87,91.36c-.49-4.26-.85-7.27-1.15-9.11A13.26,13.26,0,0,0,85,78.44L84.14,76a2.23,2.23,0,0,0,.54-1.68,1.33,1.33,0,0,0-.3-.89,8.76,8.76,0,0,0-.61-.88c.12-.36.24-.66.37-1a4.39,4.39,0,0,0,.06-.88c-.06-.81-.13-1.69-.25-2.79a17.38,17.38,0,0,0-.3-2.72c-.12-.81-.24-1.76-.42-2.93a1.47,1.47,0,0,0-.24-.44V70a9.87,9.87,0,0,0,.06,1.33,2.51,2.51,0,0,0,.24.81,1.55,1.55,0,0,0,.24.43A3.37,3.37,0,0,0,83,74.33a3,3,0,0,0,.6,1.76c-.24.58-.36,1-.48,1.32s0,.66-.06,1.32v19.6c0,.73.12,1.1.42,1.17s.48-.29.36-1l.24-2.94c.13.74.25,1.4.37,2.13a17.33,17.33,0,0,1,.24,2l.18,2.94-1.15.22a1,1,0,0,0-.6.37,1.91,1.91,0,0,1-.48.44,2,2,0,0,0-1.46-.67,1.28,1.28,0,0,0-.78.3c-.24.14-.42.22-.67.37a6.25,6.25,0,0,1-.54-.44c-.18-.15-.48-.3-.91-.59a6.22,6.22,0,0,0-1.08-.3,14.54,14.54,0,0,1,.12-2.2c.12-.8.18-1.46.24-2s.06-1,.12-1.32a2.7,2.7,0,0,1,.3-1.18,10.91,10.91,0,0,1,.36,2.28,5.68,5.68,0,0,0,.55,1.25c.12,0,.18-.15.24-.44a4.37,4.37,0,0,1,.06-.81V78.51a2.37,2.37,0,0,0-.18-1,7.69,7.69,0,0,0-1-1.62,1.22,1.22,0,0,0,.67-.59,4.12,4.12,0,0,0,.24-.95,2.27,2.27,0,0,0-.85-1.91l.67-.59a1.34,1.34,0,0,0,.36-.88c0-.36,0-.8.06-1.47V50c0-.44-.12-.66-.42-.74s-.37.15-.43.45l-.42,2.71-.36-2.86c-.12-1.17-.24-2.35-.36-3.67l1.32-.22a1.64,1.64,0,0,0,.73-.37,2.09,2.09,0,0,0,.54-.36,2.69,2.69,0,0,0,1.57.73A2.38,2.38,0,0,0,83,45l1.08.8c.43.22.85.44,1.33.74l4.11,26.57V50.25q0-.66-.36-.66c-.24,0-.36.15-.42.59Z"/><path d="M98.77,101.92a11.77,11.77,0,0,1-1.52-2.27,9.7,9.7,0,0,1-.49-2.28v-18a8.52,8.52,0,0,0-.22-1.62,18.23,18.23,0,0,0-.75-1.83,2.08,2.08,0,0,0,.48-.73,2.49,2.49,0,0,0,.27-1,1.75,1.75,0,0,0-.75-1.61,3.63,3.63,0,0,0,.7-1.32,8.16,8.16,0,0,0,.27-1.84V51c.06-.15.22-.74.6-1.84a8,8,0,0,1,1.41-2.72A4.91,4.91,0,0,1,101.31,45a5,5,0,0,0,2.71.87,4.75,4.75,0,0,0,2.55-.87,15.83,15.83,0,0,1,1.9.87A3.13,3.13,0,0,1,109.88,47a4.91,4.91,0,0,1,1,1.76,6.24,6.24,0,0,1,.43,2.28V68.38a10.91,10.91,0,0,0,.06,1.54,2.68,2.68,0,0,0,.32,1.1,5.23,5.23,0,0,0,.55,1,2.5,2.5,0,0,1,.48.66,2.05,2.05,0,0,0-.59.59,1.11,1.11,0,0,0-.33.73,1.81,1.81,0,0,0,.81,2,4.62,4.62,0,0,0-1,1.91,8,8,0,0,0-.32,2.2,4.37,4.37,0,0,0,0,.88V95.25a11.22,11.22,0,0,1-.27,2.78,9.55,9.55,0,0,1-1.24,3.09,5.36,5.36,0,0,1-3.37,2.57c-.32-.23-.65-.37-1-.59a3.48,3.48,0,0,0-1.19-.29,3.89,3.89,0,0,0-2.44.88A4.49,4.49,0,0,1,98.77,101.92Zm4.06-2.64a2.17,2.17,0,0,0,1.47.73,1.3,1.3,0,0,0,1.13-.58,2.23,2.23,0,0,0,.49-1.54V80.2a7,7,0,0,0-.21-1.91,10.12,10.12,0,0,0-.33-1.1,10.4,10.4,0,0,0-.65-1.25,6,6,0,0,1,.54-.88,1.93,1.93,0,0,0,.38-1,1.32,1.32,0,0,0-.92-1.47,3.59,3.59,0,0,0,.81-1.47,7.71,7.71,0,0,0,.33-1.54c0-.44,0-.88,0-1.47V50.84a2.9,2.9,0,0,0-.49-1.62,1.41,1.41,0,0,0-1.19-.66,2.08,2.08,0,0,0-1.35.66,2.3,2.3,0,0,0-.65,1.54V67.65a7.18,7.18,0,0,0,.11,1.46,5.88,5.88,0,0,0,.21,1.55,12.63,12.63,0,0,0,.65,1.9c-.21.3-.43.52-.65.81a2,2,0,0,0-.27.88,1.6,1.6,0,0,0,.92,1.69,6.72,6.72,0,0,1-.43.73c-.06.15-.16.45-.33,1a12.23,12.23,0,0,0-.21,1.84V97.45A2.67,2.67,0,0,0,102.83,99.28Z"/><path class="cls-1" d="M113.49,36.05c0-10.24-10.09-21-30.68-27.74A24.32,24.32,0,0,1,71,21.13S75.87,9.15,74.4,6H65.58s1.26,5.25-8.83,15.13C60.53,11.25,58.22,6,58.22,6l-7.14.21s0,4.62-9.88,14.92C45,9.36,43.3,6.42,43.3,6.42,28.8,10,14.51,21.51,14.51,35.84V39.2h98.77S113.49,37.3,113.49,36.05Z"/><path class="cls-1" d="M114.54,112.51h0a4.24,4.24,0,0,0-4.14-3.33H17.6a4.24,4.24,0,0,0-4.14,3.33h0a2.75,2.75,0,0,0-.09.8,2.93,2.93,0,0,0,.11.59,11.26,11.26,0,0,0,10.8,8.1h79.44a11.26,11.26,0,0,0,10.8-8.1,2.93,2.93,0,0,0,.11-.59A2.75,2.75,0,0,0,114.54,112.51Z"/></svg>