<svg id="Layer_1" data-name="Layer 1" xmlns="http://www.w3.org/2000/svg" viewBox="0 0 64 64"><defs><style>.cls-1{fill:#e39f3a;}</style></defs><title>Artboard 1 copy</title><path d="M11.87,48.64c0,.21.05.32.21.32s.2-.11.18-.35l.18-1.6.18,3.55-.54.1c-.21.22-.37.36-.5.5a1.5,1.5,0,0,1-.47-.25.62.62,0,0,0-.37-.11,2.19,2.19,0,0,0-1.15.36,1.92,1.92,0,0,0-.39-.36,1.77,1.77,0,0,0-.5-.14.42.42,0,0,0-.24,0l.06-1.49c0-.28,0-.64.07-1.13s.11-.78.16-1.07l.11,1.63c0,.21.07.32.26.36s.23-.11.26-.39V39.93a4.18,4.18,0,0,0-.16-1.32,2.28,2.28,0,0,0-.44-.81c.23-.11.34-.36.36-.74a.78.78,0,0,0-.36-.78,3.54,3.54,0,0,0,.42-.89,4.25,4.25,0,0,0,.15-1.17V25.68c0-.28-.07-.42-.26-.42s-.23.1-.23.35L8.8,27.1l-.23-1.45v-1a7.17,7.17,0,0,0-.11-.95.52.52,0,0,0,.29-.07,1.14,1.14,0,0,0,.34-.22c.13-.07.24-.25.34-.6.13.07.29.18.5.32a2.17,2.17,0,0,0,.73.18,2.66,2.66,0,0,0,1-.25,6.14,6.14,0,0,1,1-.25,5,5,0,0,1,1.23.11,1.54,1.54,0,0,1,.68.39,3.53,3.53,0,0,1,.82,1A3.93,3.93,0,0,1,16,25.89v8.76a14.24,14.24,0,0,1-.37,1.45,2.86,2.86,0,0,1-.47,1,2.12,2.12,0,0,1-.68.63,7.61,7.61,0,0,1-1.38.39c-.68.11-1,.36-1.16.82a12,12,0,0,0-.07,1.38Zm1.7-22.89a1.74,1.74,0,0,0-.24-.85.78.78,0,0,0-.57-.39.76.76,0,0,0-.66.43,1.61,1.61,0,0,0-.23.92v8.79a1.56,1.56,0,0,0,.18,1,.77.77,0,0,0,.71.39c.23,0,.41-.14.57-.49a1.68,1.68,0,0,0,.18-.89V26.14C13.54,26,13.54,25.89,13.57,25.75Z"/><path d="M16,48.82l.1-1.49a.35.35,0,0,0,.07.21,8.38,8.38,0,0,0,.19,1.24c.07.32.17.46.29.5s.39-1.49.48-4.5.07-5,.1-6.09A1.29,1.29,0,0,0,17,38c-.12-.22-.22-.36-.31-.5a.56.56,0,0,0,.41-.18.77.77,0,0,0,.19-.56c0-.25-.17-.5-.51-.78l0,0s-.05,0-.1-.1l.51-.25a2.4,2.4,0,0,0,.29-.92l.76-10.32v-.74l.41-.32a.87.87,0,0,0,.2-.18c0-.07.12-.14.21-.28a1.6,1.6,0,0,1,.41.21,2.78,2.78,0,0,0,.55.14,1.63,1.63,0,0,0,1-.35l.36.35.41.29,0,.64.69,10.13a2.25,2.25,0,0,0,.24,1,3.82,3.82,0,0,0,.48.88c-.24.07-.36.29-.38.71a1.43,1.43,0,0,0,.12.64.51.51,0,0,0,.36.28c-.1.25-.19.5-.29.78s-.07.53-.1.71c.15,3.62.25,6.2.32,7.83s.12,2.34.26,2.38.12-.29.24-.92L24,47.4l.48,3-.45.28a1.4,1.4,0,0,0-.22.25,2.06,2.06,0,0,1-.19.25l-.29-.36a1,1,0,0,0-.74-.21,1,1,0,0,0-.34,0,.58.58,0,0,0-.24,0l-.36.11c-.05,0-.1,0-.17.14l-.17.25c0-.07-.12-.14-.21-.28a1.15,1.15,0,0,0-.24-.25l-.46-.18-.24-2.91a6.76,6.76,0,0,0,.19.78,1.86,1.86,0,0,0,.22.53.27.27,0,0,0,.12,0c0-.14,0-.5.05-1.1V45.21a1.24,1.24,0,0,0-.34-.93,1.14,1.14,0,0,0-.77-.35,2.33,2.33,0,0,0-.79.11c-.17.07-.24.24-.27.6l-.17,4.25c0,.28,0,.43.17.43s.08,0,.12-.11a7.08,7.08,0,0,0,.17-.81c.1-.5.17-.86.24-1.07l.05,3.19-.43.21s-.1,0-.19.18a2.38,2.38,0,0,1-.2.25c-.24-.14-.48-.28-.77-.43a.7.7,0,0,0-.45.15,2.23,2.23,0,0,0-.36.28s0-.07-.1-.18a1.71,1.71,0,0,0-.24-.25L16,50.49Zm4.11-7.51c.15-.11.22-.43.22-1a5.42,5.42,0,0,0-.15-1.1,12.57,12.57,0,0,0-.41-1.66.75.75,0,0,0,.34-.6,1.24,1.24,0,0,0-.34-1c.05-1,.1-2,.2-3.09a7.38,7.38,0,0,0,0-1.2c0-.25-.1-.78-.27-1.63a8.55,8.55,0,0,1-.14,1.31c-.05.57-.07,1.06-.1,1.49a22.17,22.17,0,0,0,.2,3.12,1.53,1.53,0,0,0-.32.85,1.55,1.55,0,0,0,.24.74c-.19.64-.33,1.17-.45,1.67A10.56,10.56,0,0,0,19,40.39c0,.49.07.78.24.92a2,2,0,0,0,.48.14A.73.73,0,0,0,20.13,41.31Z"/><path d="M29.92,26.42l-.29-3.08.52-.21a4.64,4.64,0,0,1,.43-.32,1.39,1.39,0,0,0,.85.35.63.63,0,0,0,.34-.1l.47-.25a2.17,2.17,0,0,0,.43.39,2.45,2.45,0,0,1,.29.18.75.75,0,0,1,.23,0l-.29,3-.23-1.09c0-.22-.09-.32-.23-.32s-.23.1-.17.39v9.21a2.45,2.45,0,0,0,.08.57c.06.21.12.39.18.56a1.46,1.46,0,0,0,.29.47c-.21.14-.29.42-.32.85a.75.75,0,0,0,.43.74,1.12,1.12,0,0,1-.23.25c-.06,0-.12.28-.17.78a4.81,4.81,0,0,1-.15,1.06,1.9,1.9,0,0,0-.09.43V50.63a1.73,1.73,0,0,0-.58.1,1,1,0,0,0-.34.25l-.18.18a1.71,1.71,0,0,1-.43-.32l-.7-.21q-.3-2.34-.69-5.42c-.24-2.06-.41-3.51-.55-4.4A6.69,6.69,0,0,0,28.44,39L28,37.8a1.07,1.07,0,0,0,.26-.81.6.6,0,0,0-.14-.43,4.65,4.65,0,0,0-.29-.43c.06-.17.12-.31.17-.49a2.08,2.08,0,0,0,0-.43c0-.39-.06-.81-.11-1.34a8,8,0,0,0-.15-1.31c-.06-.39-.12-.86-.2-1.42a.75.75,0,0,0-.12-.21v4a4.5,4.5,0,0,0,0,.64,1.06,1.06,0,0,0,.12.39.71.71,0,0,0,.11.21,1.68,1.68,0,0,0-.26.86,1.42,1.42,0,0,0,.29.84c-.11.29-.17.5-.23.64a6.39,6.39,0,0,1,0,.64v9.46c0,.36.06.53.2.57s.24-.14.18-.46L28,47.26c.06.36.12.67.18,1a6.37,6.37,0,0,1,.11,1l.09,1.42-.55.11a.48.48,0,0,0-.29.18,1,1,0,0,1-.23.21,1,1,0,0,0-.7-.32.64.64,0,0,0-.37.14l-.32.18a2.37,2.37,0,0,1-.26-.21c-.09-.07-.24-.15-.44-.29a3.34,3.34,0,0,0-.52-.14,6.71,6.71,0,0,1,.06-1.06c.05-.39.08-.71.11-1s0-.5.06-.64a1.29,1.29,0,0,1,.15-.57,6.21,6.21,0,0,1,.17,1.1,2.6,2.6,0,0,0,.26.6c.06,0,.09-.07.12-.21a2,2,0,0,1,0-.39V39a1.18,1.18,0,0,0-.09-.46,4.67,4.67,0,0,0-.47-.78.51.51,0,0,0,.32-.28,1.93,1.93,0,0,0,.12-.46,1.11,1.11,0,0,0-.41-.92l.32-.28a.69.69,0,0,0,.18-.43,6.85,6.85,0,0,1,0-.71V25.26c0-.22-.06-.32-.21-.36s-.17.07-.2.21L25,26.42,24.84,25c-.06-.56-.11-1.13-.17-1.77l.64-.11a.78.78,0,0,0,.34-.17,1,1,0,0,0,.27-.18,1.25,1.25,0,0,0,.75.35,1.1,1.1,0,0,0,.78-.35l.52.39c.21.11.41.21.64.35l2,12.83v-11c0-.21,0-.32-.17-.32s-.17.07-.2.29Z"/><path d="M37,48.5c0,.21.08.32.23.35s.24-.1.22-.38l.12-1.14.2,1.6L38,50.56l-.42.21c-.2.14-.35.25-.47.35a1.63,1.63,0,0,1-.6-.14,2.32,2.32,0,0,0-.63-.1,1.22,1.22,0,0,0-.52.07,1.9,1.9,0,0,0-.6.21,5.36,5.36,0,0,1-.52-.46,1.34,1.34,0,0,0-.6-.21,8.18,8.18,0,0,1,.05-1.07c0-.39.07-.71.1-1a6.41,6.41,0,0,1,.05-.64,1.4,1.4,0,0,1,.12-.56,5.83,5.83,0,0,1,.15,1.09,3,3,0,0,0,.23.61s.07-.08.1-.22a3.13,3.13,0,0,1,0-.39V39a1.31,1.31,0,0,0-.07-.46,4.24,4.24,0,0,0-.4-.78c.1,0,.17-.11.27-.29a2,2,0,0,0,.1-.45,1.34,1.34,0,0,0-.37-.93,3.06,3.06,0,0,1,.2-.63c0-.22.1-.43.15-.68s0-.46.07-.64a6.16,6.16,0,0,0,0-.63V25.22c0-.21,0-.32-.17-.35s-.15.07-.18.21L34,26.39,33.8,25c0-.57-.1-1.14-.15-1.77l.37-.11a1.11,1.11,0,0,0,.45-.32l1.25.32a2.29,2.29,0,0,0,.57,0,1.83,1.83,0,0,0,.63-.28c.15.11.27.18.42.28a1.54,1.54,0,0,0,.35.15h.37l-.2,1.06-.37,2.23-.18-1.34a.37.37,0,0,0-.17-.36c-.1,0-.15.11-.15.39v9.21a3.26,3.26,0,0,0,0,.68,2.29,2.29,0,0,0,.15.56,1.61,1.61,0,0,0,.27.39c-.24.11-.37.39-.37.93a.79.79,0,0,0,.37.74,3.25,3.25,0,0,0-.39,1,4.8,4.8,0,0,0-.08.85V48.5Z"/><path d="M43.65,26.42l-.3-3.08.53-.21a3.59,3.59,0,0,1,.44-.32,1.34,1.34,0,0,0,.84.35.64.64,0,0,0,.35-.1l.47-.25a2.2,2.2,0,0,0,.44.39c.11.07.2.11.29.18a.75.75,0,0,1,.23,0l-.29,3-.23-1.09c0-.22-.09-.32-.24-.32s-.23.1-.17.39v9.21a2.58,2.58,0,0,0,.09.57c.06.21.11.39.17.56a1.94,1.94,0,0,0,.29.47c-.2.14-.29.42-.32.85a.76.76,0,0,0,.44.74,1.94,1.94,0,0,1-.23.25c-.06,0-.12.28-.18.78a5.58,5.58,0,0,1-.14,1.06,1.9,1.9,0,0,0-.09.43V50.63a1.65,1.65,0,0,0-.58.1,1.1,1.1,0,0,0-.36.25c-.05.07-.11.11-.17.18a1.75,1.75,0,0,1-.44-.32l-.7-.21c-.2-1.56-.44-3.37-.7-5.42s-.41-3.51-.55-4.4A6.69,6.69,0,0,0,42.16,39l-.44-1.17A1.07,1.07,0,0,0,42,37a.65.65,0,0,0-.14-.43c-.09-.14-.18-.28-.29-.43.05-.17.11-.31.17-.49a2.08,2.08,0,0,0,0-.43c0-.39-.06-.81-.12-1.34a9.4,9.4,0,0,0-.14-1.31c-.06-.39-.12-.86-.21-1.42a1.06,1.06,0,0,0-.11-.21v4a4.5,4.5,0,0,0,0,.64.91.91,0,0,0,.11.39.75.75,0,0,0,.12.21,1.59,1.59,0,0,0-.26.86,1.36,1.36,0,0,0,.29.84c-.12.29-.18.5-.24.64s0,.32,0,.64v9.46c0,.36,0,.53.2.57s.23-.14.17-.46l.12-1.42c.06.36.12.67.18,1a8,8,0,0,1,.11,1l.09,1.42-.55.11a.5.5,0,0,0-.3.18.68.68,0,0,1-.23.21,1,1,0,0,0-.7-.32.66.66,0,0,0-.38.14l-.32.18a2.37,2.37,0,0,1-.26-.21c-.09-.07-.23-.15-.44-.29a3.34,3.34,0,0,0-.52-.14,8,8,0,0,1,.05-1.06c.06-.39.09-.71.12-1s0-.5.06-.64a1.4,1.4,0,0,1,.14-.57,5.07,5.07,0,0,1,.18,1.1,3.11,3.11,0,0,0,.26.6c.06,0,.09-.07.12-.21a2,2,0,0,1,0-.39V39a1.18,1.18,0,0,0-.09-.46,4,4,0,0,0-.47-.78.55.55,0,0,0,.33-.28,2.59,2.59,0,0,0,.11-.46,1.08,1.08,0,0,0-.41-.92l.32-.28a.69.69,0,0,0,.18-.43,6.85,6.85,0,0,1,0-.71V25.26c0-.22-.06-.32-.21-.36s-.17.07-.2.21l-.2,1.31L38.54,25c-.06-.56-.12-1.13-.17-1.77l.64-.11a.87.87,0,0,0,.35-.17,1.17,1.17,0,0,0,.26-.18,1.27,1.27,0,0,0,.76.35,1.14,1.14,0,0,0,.79-.35l.52.39c.21.11.41.21.64.35l2,12.83v-11c0-.21-.06-.32-.18-.32s-.17.07-.2.29Z"/><path d="M48.78,50.31a6.17,6.17,0,0,1-.73-1.1,4.86,4.86,0,0,1-.23-1.1V39.43a4.39,4.39,0,0,0-.11-.78,7.72,7.72,0,0,0-.37-.89,1,1,0,0,0,.24-.35,1.12,1.12,0,0,0,.13-.46.84.84,0,0,0-.37-.78,1.73,1.73,0,0,0,.35-.64,4.85,4.85,0,0,0,.13-.88V25.72c0-.07.1-.36.28-.89a4,4,0,0,1,.68-1.31A2.37,2.37,0,0,1,50,22.81a2.45,2.45,0,0,0,1.31.43,2.32,2.32,0,0,0,1.23-.43,6.16,6.16,0,0,1,.92.43,1.49,1.49,0,0,1,.68.53,2.25,2.25,0,0,1,.5.85,3.16,3.16,0,0,1,.21,1.1v8.39c0,.32,0,.57,0,.75a1.2,1.2,0,0,0,.16.53,2.51,2.51,0,0,0,.26.46,1.26,1.26,0,0,1,.24.32,1,1,0,0,0-.29.28.58.58,0,0,0-.16.36.87.87,0,0,0,.39.95,2.19,2.19,0,0,0-.49.93,3.54,3.54,0,0,0-.16,1.06,1.63,1.63,0,0,0,0,.42v6.91a5.23,5.23,0,0,1-.14,1.35,4.45,4.45,0,0,1-.6,1.49,2.53,2.53,0,0,1-1.62,1.24c-.16-.11-.31-.18-.47-.28a1.66,1.66,0,0,0-.58-.15,1.88,1.88,0,0,0-1.17.43A2.2,2.2,0,0,1,48.78,50.31Zm2-1.28a1.09,1.09,0,0,0,.7.36A.62.62,0,0,0,52,49.1a1,1,0,0,0,.24-.74V39.82a3.27,3.27,0,0,0-.11-.92,5.26,5.26,0,0,0-.15-.53,6.5,6.5,0,0,0-.32-.61,3.06,3.06,0,0,1,.26-.42.94.94,0,0,0,.19-.46.64.64,0,0,0-.45-.71,1.72,1.72,0,0,0,.4-.71,4,4,0,0,0,.15-.74,6.11,6.11,0,0,1,0-.71V25.65a1.36,1.36,0,0,0-.24-.78.66.66,0,0,0-.57-.32,1,1,0,0,0-.66.32,1.08,1.08,0,0,0-.31.74v8.15a3.74,3.74,0,0,0,0,.71,2.71,2.71,0,0,0,.11.74,5.2,5.2,0,0,0,.31.92c-.1.15-.21.25-.31.39a1,1,0,0,0-.14.43.78.78,0,0,0,.45.81,2.87,2.87,0,0,1-.21.36,4.53,4.53,0,0,0-.16.49,5.38,5.38,0,0,0-.1.89v8.65A1.28,1.28,0,0,0,50.75,49Z"/><path class="cls-1" d="M55.89,18.51c0-5-4.87-10.15-14.81-13.39A11.75,11.75,0,0,1,35.4,11.3S37.73,5.52,37,4H32.76s.61,2.54-4.26,7.3c1.83-4.76.71-7.3.71-7.3l-3.45.1s0,2.23-4.77,7.2c1.83-5.68,1-7.1,1-7.1-7,1.73-13.9,7.29-13.9,14.21V20H55.79S55.89,19.11,55.89,18.51Z"/><path class="cls-1" d="M56.4,55.42h0a2.05,2.05,0,0,0-2-1.61H9.6a2.05,2.05,0,0,0-2,1.61h0a1.29,1.29,0,0,0,0,.38,1.35,1.35,0,0,0,.05.29A5.45,5.45,0,0,0,12.83,60H51.17a5.45,5.45,0,0,0,5.22-3.91,1.35,1.35,0,0,0,0-.29A1.29,1.29,0,0,0,56.4,55.42Z"/></svg>